<svg t="1647914506319" class="icon" viewBox="0 0 1024 1024" version="1.1" xmlns="http://www.w3.org/2000/svg" p-id="2886" width="200" height="200"><path d="M0 0h1024v1024H0z" fill="#FFFFFF" p-id="2887"></path><path d="M904 930H120c-44.112 0-80-35.888-80-80V174c0-44.112 35.888-80 80-80h784c44.112 0 80 35.888 80 80v676c0 44.112-35.888 80-80 80z" fill="#D8DDE3" p-id="2888"></path><path d="M120 134c-22.056 0-40 17.944-40 40v676c0 22.056 17.944 40 40 40h784c22.056 0 40-17.944 40-40V174c0-22.056-17.944-40-40-40H120m0-80h784c66.274 0 120 53.726 120 120v676c0 66.274-53.726 120-120 120H120c-66.274 0-120-53.726-120-120V174c0-66.274 53.726-120 120-120z" fill="#505873" p-id="2889"></path><path d="M984 302H40V174c0-44.112 35.888-80 80-80h784c44.112 0 80 35.888 80 80v128z" fill="#FFFFFF" p-id="2890"></path><path d="M120 134c-22.056 0-40 17.944-40 40v88h864V174c0-22.056-17.944-40-40-40H120m0-80h784c66.274 0 120 53.726 120 120v168H0V174c0-66.274 53.726-120 120-120z" fill="#505873" p-id="2891"></path><path d="M730.04 521.358l103.922 60a40 40 0 0 1-40 69.282l-103.922-60a40 40 0 0 1 40-69.282z" fill="#505873" p-id="2892"></path><path d="M690.04 641.358l103.922-60a40 40 0 1 1 40 69.282l-103.922 60a40 40 0 0 1-40-69.282z" fill="#505873" p-id="2893"></path><path d="M335.962 590.64l-103.922 60A40 40 0 0 1 177.4 636a40 40 0 0 1 14.64-54.642l103.922-60a40 40 0 0 1 54.642 14.64 40 40 0 0 1-14.64 54.642z" fill="#505873" p-id="2894"></path><path d="M295.962 710.64l-103.922-60a40 40 0 1 1 40-69.282l103.922 60a40 40 0 0 1-40 69.282z" fill="#505873" p-id="2895"></path><path d="M652.772 511.406L439.296 765.718a40.004 40.004 0 0 1-61.28-51.44l213.476-254.312a40.004 40.004 0 0 1 61.28 51.44z" fill="#FF402A" p-id="2896"></path></svg>
